<mxfile modified="2021-10-01T22:08:49.653Z" host="app.diagrams.net" agent="5.0 (Windows NT 10.0; Win64; x64) AppleWebKit/537.36 (KHTML, like Gecko) Chrome/94.0.4606.61 Safari/537.36" etag="Mvht9c-abfDz0aza13Ot" version="15.4.0" type="github">
  <diagram id="Ht1M8jgEwFfnCIfOTk4-" name="Page-1">
    <mxGraphModel dx="1955" dy="1125" grid="1" gridSize="10" guides="1" tooltips="1" connect="1" arrows="1" fold="1" page="1" pageScale="1" pageWidth="1169" pageHeight="827" math="0" shadow="0">
      <root>
        <mxCell id="0" />
        <mxCell id="1" parent="0" />
        <mxCell id="8jDcVQB9mLgturJCLghL-115" value="" style="rounded=0;whiteSpace=wrap;html=1;fontSize=28;strokeWidth=2;fillColor=#fff2cc;strokeColor=#d6b656;fontStyle=1" vertex="1" parent="1">
          <mxGeometry x="190" y="950" width="1290" height="1620" as="geometry" />
        </mxCell>
        <mxCell id="8jDcVQB9mLgturJCLghL-17" value="Networking and Security" style="text;html=1;align=center;verticalAlign=middle;resizable=0;points=[];autosize=1;strokeColor=none;fillColor=none;fontSize=28;fontStyle=1;fontColor=#000000;" vertex="1" parent="1">
          <mxGeometry x="887.5" y="670" width="340" height="40" as="geometry" />
        </mxCell>
        <mxCell id="8jDcVQB9mLgturJCLghL-16" value="" style="rounded=1;whiteSpace=wrap;html=1;fontSize=28;fontStyle=1;fontColor=#000000;" vertex="1" parent="1">
          <mxGeometry x="475" y="400" width="1165" height="270" as="geometry" />
        </mxCell>
        <mxCell id="UEzPUAAOIrF-is8g5C7q-114" value="Amazon API&lt;br style=&quot;font-size: 28px;&quot;&gt;Gateway&lt;br style=&quot;font-size: 28px;&quot;&gt;" style="outlineConnect=0;fontColor=#000000;gradientColor=#945DF2;gradientDirection=north;fillColor=#5A30B5;strokeColor=#ffffff;dashed=0;verticalLabelPosition=bottom;verticalAlign=top;align=center;html=1;fontSize=28;fontStyle=1;aspect=fixed;shape=mxgraph.aws4.resourceIcon;resIcon=mxgraph.aws4.api_gateway;labelBackgroundColor=#ffffff;" parent="1" vertex="1">
          <mxGeometry x="1450" y="477" width="78" height="78" as="geometry" />
        </mxCell>
        <mxCell id="tOSdlADLp0MFVeMP-LaB-2" value="&lt;font style=&quot;font-size: 28px;&quot;&gt;&lt;span style=&quot;font-size: 28px;&quot;&gt;Cloudfront&lt;br style=&quot;font-size: 28px;&quot;&gt;Distribution&lt;/span&gt;&lt;/font&gt;" style="outlineConnect=0;dashed=0;verticalLabelPosition=bottom;verticalAlign=top;align=center;html=1;shape=mxgraph.aws3.cloudfront;fillColor=#F58536;gradientColor=none;fontSize=28;fontStyle=1;fontColor=#000000;" parent="1" vertex="1">
          <mxGeometry x="785" y="477" width="78" height="78" as="geometry" />
        </mxCell>
        <mxCell id="tOSdlADLp0MFVeMP-LaB-8" value="&lt;span style=&quot;font-size: 28px;&quot;&gt;&lt;font style=&quot;font-size: 28px;&quot;&gt;Route 53&lt;/font&gt;&lt;/span&gt;" style="outlineConnect=0;dashed=0;verticalLabelPosition=bottom;verticalAlign=top;align=center;html=1;shape=mxgraph.aws3.route_53;fillColor=#F58536;gradientColor=none;fontSize=28;fontStyle=1;fontColor=#000000;" parent="1" vertex="1">
          <mxGeometry x="555" y="477" width="78" height="78" as="geometry" />
        </mxCell>
        <mxCell id="tOSdlADLp0MFVeMP-LaB-11" value="" style="group;fontSize=28;fontStyle=1;fontColor=#000000;" parent="1" vertex="1" connectable="0">
          <mxGeometry x="165" y="400" width="100" height="285" as="geometry" />
        </mxCell>
        <mxCell id="UEzPUAAOIrF-is8g5C7q-109" value="Web Users" style="outlineConnect=0;gradientColor=none;fontColor=#000000;strokeColor=none;fillColor=#879196;dashed=0;verticalLabelPosition=bottom;verticalAlign=top;align=center;html=1;fontSize=28;fontStyle=1;aspect=fixed;shape=mxgraph.aws4.illustration_desktop;pointerEvents=1;labelBackgroundColor=#ffffff;" parent="tOSdlADLp0MFVeMP-LaB-11" vertex="1">
          <mxGeometry y="194" width="100" height="91" as="geometry" />
        </mxCell>
        <mxCell id="UEzPUAAOIrF-is8g5C7q-110" value="&lt;font style=&quot;font-size: 28px;&quot;&gt;Mobile Users&lt;/font&gt;" style="outlineConnect=0;gradientColor=none;fontColor=#000000;strokeColor=none;fillColor=#879196;dashed=0;verticalLabelPosition=bottom;verticalAlign=top;align=center;html=1;fontSize=28;fontStyle=1;aspect=fixed;shape=mxgraph.aws4.illustration_notification;pointerEvents=1;labelBackgroundColor=#ffffff;" parent="tOSdlADLp0MFVeMP-LaB-11" vertex="1">
          <mxGeometry width="100" height="81" as="geometry" />
        </mxCell>
        <mxCell id="tOSdlADLp0MFVeMP-LaB-24" style="edgeStyle=orthogonalEdgeStyle;curved=1;rounded=0;orthogonalLoop=1;jettySize=auto;html=1;entryX=0;entryY=0.5;entryDx=0;entryDy=0;endArrow=doubleBlock;endFill=1;strokeColor=#858585;strokeWidth=2;fontSize=28;fontStyle=1;fontColor=#000000;" parent="1" source="UEzPUAAOIrF-is8g5C7q-110" target="8jDcVQB9mLgturJCLghL-16" edge="1">
          <mxGeometry x="165" y="400" as="geometry" />
        </mxCell>
        <mxCell id="8jDcVQB9mLgturJCLghL-1" value="WAF" style="outlineConnect=0;dashed=0;verticalLabelPosition=bottom;verticalAlign=top;align=center;html=1;shape=mxgraph.aws3.waf;fillColor=#759C3E;gradientColor=none;fontSize=28;fontStyle=1;fontColor=#000000;" vertex="1" parent="1">
          <mxGeometry x="995.25" y="477" width="78" height="78" as="geometry" />
        </mxCell>
        <mxCell id="8jDcVQB9mLgturJCLghL-2" style="edgeStyle=orthogonalEdgeStyle;orthogonalLoop=1;jettySize=auto;html=1;entryX=0;entryY=0.5;entryDx=0;entryDy=0;fontSize=28;fontStyle=1;fontColor=#000000;strokeColor=#858585;curved=1;strokeWidth=2;" edge="1" parent="1" source="UEzPUAAOIrF-is8g5C7q-109" target="8jDcVQB9mLgturJCLghL-16">
          <mxGeometry x="165" y="400" as="geometry">
            <Array as="points">
              <mxPoint x="415" y="640" />
              <mxPoint x="415" y="535" />
            </Array>
          </mxGeometry>
        </mxCell>
        <mxCell id="8jDcVQB9mLgturJCLghL-23" value="Load Balancer" style="outlineConnect=0;dashed=0;verticalLabelPosition=bottom;verticalAlign=top;align=center;html=1;shape=mxgraph.aws3.application_load_balancer;fillColor=#F58534;gradientColor=none;fontSize=28;strokeWidth=2;fontStyle=1;fontColor=#000000;" vertex="1" parent="1">
          <mxGeometry x="1790" y="950" width="78" height="78" as="geometry" />
        </mxCell>
        <mxCell id="8jDcVQB9mLgturJCLghL-113" value="" style="outlineConnect=0;dashed=0;verticalLabelPosition=bottom;verticalAlign=top;align=center;html=1;shape=mxgraph.aws3.virtual_private_cloud;fillColor=#F58534;gradientColor=none;fontSize=28;fontColor=#000000;strokeWidth=2;fontStyle=1" vertex="1" parent="1">
          <mxGeometry x="281.03999999999996" y="900" width="140" height="80" as="geometry" />
        </mxCell>
        <mxCell id="8jDcVQB9mLgturJCLghL-260" value="" style="group" vertex="1" connectable="0" parent="1">
          <mxGeometry x="219" y="970" width="1241" height="360" as="geometry" />
        </mxCell>
        <mxCell id="8jDcVQB9mLgturJCLghL-19" value="" style="rounded=1;whiteSpace=wrap;html=1;fontSize=28;fillColor=#d5e8d4;strokeWidth=2;fontStyle=1;strokeColor=#82b366;" vertex="1" parent="8jDcVQB9mLgturJCLghL-260">
          <mxGeometry y="71.02999999999997" width="1241" height="288.97" as="geometry" />
        </mxCell>
        <mxCell id="8jDcVQB9mLgturJCLghL-246" value="" style="sketch=0;html=1;dashed=0;whitespace=wrap;fillColor=#2875E2;strokeColor=#ffffff;points=[[0.005,0.63,0],[0.1,0.2,0],[0.9,0.2,0],[0.5,0,0],[0.995,0.63,0],[0.72,0.99,0],[0.5,1,0],[0.28,0.99,0]];shape=mxgraph.kubernetes.icon;prIcon=hpa;fontSize=28;fontColor=#000000;fontStyle=1" vertex="1" parent="8jDcVQB9mLgturJCLghL-260">
          <mxGeometry x="545.86" width="118.29" height="121.04" as="geometry" />
        </mxCell>
        <mxCell id="8jDcVQB9mLgturJCLghL-250" value="&lt;span style=&quot;font-size: 28px;&quot;&gt;Auto Scaling Group&lt;/span&gt;" style="text;html=1;align=center;verticalAlign=middle;resizable=0;points=[];autosize=1;strokeColor=none;fillColor=none;fontSize=28;fontColor=#000000;fontStyle=1" vertex="1" parent="8jDcVQB9mLgturJCLghL-260">
          <mxGeometry x="461" y="315" width="280" height="40" as="geometry" />
        </mxCell>
        <mxCell id="8jDcVQB9mLgturJCLghL-252" value="" style="sketch=0;html=1;dashed=0;whitespace=wrap;fillColor=#2875E2;strokeColor=#ffffff;points=[[0.005,0.63,0],[0.1,0.2,0],[0.9,0.2,0],[0.5,0,0],[0.995,0.63,0],[0.72,0.99,0],[0.5,1,0],[0.28,0.99,0]];shape=mxgraph.kubernetes.icon;prIcon=pod;fontSize=28;fontColor=#000000;fontStyle=1" vertex="1" parent="8jDcVQB9mLgturJCLghL-260">
          <mxGeometry x="141" y="160" width="80" height="80" as="geometry" />
        </mxCell>
        <mxCell id="8jDcVQB9mLgturJCLghL-253" value="" style="sketch=0;html=1;dashed=0;whitespace=wrap;fillColor=#2875E2;strokeColor=#ffffff;points=[[0.005,0.63,0],[0.1,0.2,0],[0.9,0.2,0],[0.5,0,0],[0.995,0.63,0],[0.72,0.99,0],[0.5,1,0],[0.28,0.99,0]];shape=mxgraph.kubernetes.icon;prIcon=pod;fontSize=28;fontColor=#000000;fontStyle=1" vertex="1" parent="8jDcVQB9mLgturJCLghL-260">
          <mxGeometry x="286" y="160" width="80" height="80" as="geometry" />
        </mxCell>
        <mxCell id="8jDcVQB9mLgturJCLghL-254" value="" style="sketch=0;html=1;dashed=0;whitespace=wrap;fillColor=#2875E2;strokeColor=#ffffff;points=[[0.005,0.63,0],[0.1,0.2,0],[0.9,0.2,0],[0.5,0,0],[0.995,0.63,0],[0.72,0.99,0],[0.5,1,0],[0.28,0.99,0]];shape=mxgraph.kubernetes.icon;prIcon=pod;fontSize=28;fontColor=#000000;fontStyle=1" vertex="1" parent="8jDcVQB9mLgturJCLghL-260">
          <mxGeometry x="431" y="160" width="80" height="80" as="geometry" />
        </mxCell>
        <mxCell id="8jDcVQB9mLgturJCLghL-255" value="" style="sketch=0;html=1;dashed=0;whitespace=wrap;fillColor=#2875E2;strokeColor=#ffffff;points=[[0.005,0.63,0],[0.1,0.2,0],[0.9,0.2,0],[0.5,0,0],[0.995,0.63,0],[0.72,0.99,0],[0.5,1,0],[0.28,0.99,0]];shape=mxgraph.kubernetes.icon;prIcon=pod;fontSize=28;fontColor=#000000;fontStyle=1" vertex="1" parent="8jDcVQB9mLgturJCLghL-260">
          <mxGeometry x="581" y="160" width="80" height="80" as="geometry" />
        </mxCell>
        <mxCell id="8jDcVQB9mLgturJCLghL-256" value="" style="sketch=0;html=1;dashed=0;whitespace=wrap;fillColor=#2875E2;strokeColor=#ffffff;points=[[0.005,0.63,0],[0.1,0.2,0],[0.9,0.2,0],[0.5,0,0],[0.995,0.63,0],[0.72,0.99,0],[0.5,1,0],[0.28,0.99,0]];shape=mxgraph.kubernetes.icon;prIcon=pod;fontSize=28;fontColor=#000000;fontStyle=1" vertex="1" parent="8jDcVQB9mLgturJCLghL-260">
          <mxGeometry x="731" y="160" width="80" height="80" as="geometry" />
        </mxCell>
        <mxCell id="8jDcVQB9mLgturJCLghL-257" value="" style="sketch=0;html=1;dashed=0;whitespace=wrap;fillColor=#2875E2;strokeColor=#ffffff;points=[[0.005,0.63,0],[0.1,0.2,0],[0.9,0.2,0],[0.5,0,0],[0.995,0.63,0],[0.72,0.99,0],[0.5,1,0],[0.28,0.99,0]];shape=mxgraph.kubernetes.icon;prIcon=pod;fontSize=28;fontColor=#000000;fontStyle=1" vertex="1" parent="8jDcVQB9mLgturJCLghL-260">
          <mxGeometry x="881" y="160" width="80" height="80" as="geometry" />
        </mxCell>
        <mxCell id="8jDcVQB9mLgturJCLghL-258" value="" style="sketch=0;html=1;dashed=0;whitespace=wrap;fillColor=#2875E2;strokeColor=#ffffff;points=[[0.005,0.63,0],[0.1,0.2,0],[0.9,0.2,0],[0.5,0,0],[0.995,0.63,0],[0.72,0.99,0],[0.5,1,0],[0.28,0.99,0]];shape=mxgraph.kubernetes.icon;prIcon=pod;fontSize=28;fontColor=#000000;fontStyle=1" vertex="1" parent="8jDcVQB9mLgturJCLghL-260">
          <mxGeometry x="1031" y="160" width="80" height="80" as="geometry" />
        </mxCell>
        <mxCell id="8jDcVQB9mLgturJCLghL-261" value="" style="group" vertex="1" connectable="0" parent="1">
          <mxGeometry x="220" y="1350" width="1241" height="360" as="geometry" />
        </mxCell>
        <mxCell id="8jDcVQB9mLgturJCLghL-262" value="" style="rounded=1;whiteSpace=wrap;html=1;fontSize=28;fillColor=#d5e8d4;strokeWidth=2;fontStyle=1;strokeColor=#82b366;" vertex="1" parent="8jDcVQB9mLgturJCLghL-261">
          <mxGeometry y="71.02999999999997" width="1241" height="288.97" as="geometry" />
        </mxCell>
        <mxCell id="8jDcVQB9mLgturJCLghL-263" value="" style="sketch=0;html=1;dashed=0;whitespace=wrap;fillColor=#2875E2;strokeColor=#ffffff;points=[[0.005,0.63,0],[0.1,0.2,0],[0.9,0.2,0],[0.5,0,0],[0.995,0.63,0],[0.72,0.99,0],[0.5,1,0],[0.28,0.99,0]];shape=mxgraph.kubernetes.icon;prIcon=hpa;fontSize=28;fontColor=#000000;fontStyle=1" vertex="1" parent="8jDcVQB9mLgturJCLghL-261">
          <mxGeometry x="545.86" width="118.29" height="121.04" as="geometry" />
        </mxCell>
        <mxCell id="8jDcVQB9mLgturJCLghL-264" value="&lt;span style=&quot;font-size: 28px;&quot;&gt;Auto Scaling Group&lt;/span&gt;" style="text;html=1;align=center;verticalAlign=middle;resizable=0;points=[];autosize=1;strokeColor=none;fillColor=none;fontSize=28;fontColor=#000000;fontStyle=1" vertex="1" parent="8jDcVQB9mLgturJCLghL-261">
          <mxGeometry x="461" y="315" width="280" height="40" as="geometry" />
        </mxCell>
        <mxCell id="8jDcVQB9mLgturJCLghL-265" value="" style="sketch=0;html=1;dashed=0;whitespace=wrap;fillColor=#2875E2;strokeColor=#ffffff;points=[[0.005,0.63,0],[0.1,0.2,0],[0.9,0.2,0],[0.5,0,0],[0.995,0.63,0],[0.72,0.99,0],[0.5,1,0],[0.28,0.99,0]];shape=mxgraph.kubernetes.icon;prIcon=pod;fontSize=28;fontColor=#000000;fontStyle=1" vertex="1" parent="8jDcVQB9mLgturJCLghL-261">
          <mxGeometry x="141" y="160" width="80" height="80" as="geometry" />
        </mxCell>
        <mxCell id="8jDcVQB9mLgturJCLghL-266" value="" style="sketch=0;html=1;dashed=0;whitespace=wrap;fillColor=#2875E2;strokeColor=#ffffff;points=[[0.005,0.63,0],[0.1,0.2,0],[0.9,0.2,0],[0.5,0,0],[0.995,0.63,0],[0.72,0.99,0],[0.5,1,0],[0.28,0.99,0]];shape=mxgraph.kubernetes.icon;prIcon=pod;fontSize=28;fontColor=#000000;fontStyle=1" vertex="1" parent="8jDcVQB9mLgturJCLghL-261">
          <mxGeometry x="286" y="160" width="80" height="80" as="geometry" />
        </mxCell>
        <mxCell id="8jDcVQB9mLgturJCLghL-267" value="" style="sketch=0;html=1;dashed=0;whitespace=wrap;fillColor=#2875E2;strokeColor=#ffffff;points=[[0.005,0.63,0],[0.1,0.2,0],[0.9,0.2,0],[0.5,0,0],[0.995,0.63,0],[0.72,0.99,0],[0.5,1,0],[0.28,0.99,0]];shape=mxgraph.kubernetes.icon;prIcon=pod;fontSize=28;fontColor=#000000;fontStyle=1" vertex="1" parent="8jDcVQB9mLgturJCLghL-261">
          <mxGeometry x="431" y="160" width="80" height="80" as="geometry" />
        </mxCell>
        <mxCell id="8jDcVQB9mLgturJCLghL-268" value="" style="sketch=0;html=1;dashed=0;whitespace=wrap;fillColor=#2875E2;strokeColor=#ffffff;points=[[0.005,0.63,0],[0.1,0.2,0],[0.9,0.2,0],[0.5,0,0],[0.995,0.63,0],[0.72,0.99,0],[0.5,1,0],[0.28,0.99,0]];shape=mxgraph.kubernetes.icon;prIcon=pod;fontSize=28;fontColor=#000000;fontStyle=1" vertex="1" parent="8jDcVQB9mLgturJCLghL-261">
          <mxGeometry x="581" y="160" width="80" height="80" as="geometry" />
        </mxCell>
        <mxCell id="8jDcVQB9mLgturJCLghL-269" value="" style="sketch=0;html=1;dashed=0;whitespace=wrap;fillColor=#2875E2;strokeColor=#ffffff;points=[[0.005,0.63,0],[0.1,0.2,0],[0.9,0.2,0],[0.5,0,0],[0.995,0.63,0],[0.72,0.99,0],[0.5,1,0],[0.28,0.99,0]];shape=mxgraph.kubernetes.icon;prIcon=pod;fontSize=28;fontColor=#000000;fontStyle=1" vertex="1" parent="8jDcVQB9mLgturJCLghL-261">
          <mxGeometry x="731" y="160" width="80" height="80" as="geometry" />
        </mxCell>
        <mxCell id="8jDcVQB9mLgturJCLghL-270" value="" style="sketch=0;html=1;dashed=0;whitespace=wrap;fillColor=#2875E2;strokeColor=#ffffff;points=[[0.005,0.63,0],[0.1,0.2,0],[0.9,0.2,0],[0.5,0,0],[0.995,0.63,0],[0.72,0.99,0],[0.5,1,0],[0.28,0.99,0]];shape=mxgraph.kubernetes.icon;prIcon=pod;fontSize=28;fontColor=#000000;fontStyle=1" vertex="1" parent="8jDcVQB9mLgturJCLghL-261">
          <mxGeometry x="881" y="160" width="80" height="80" as="geometry" />
        </mxCell>
        <mxCell id="8jDcVQB9mLgturJCLghL-271" value="" style="sketch=0;html=1;dashed=0;whitespace=wrap;fillColor=#2875E2;strokeColor=#ffffff;points=[[0.005,0.63,0],[0.1,0.2,0],[0.9,0.2,0],[0.5,0,0],[0.995,0.63,0],[0.72,0.99,0],[0.5,1,0],[0.28,0.99,0]];shape=mxgraph.kubernetes.icon;prIcon=pod;fontSize=28;fontColor=#000000;fontStyle=1" vertex="1" parent="8jDcVQB9mLgturJCLghL-261">
          <mxGeometry x="1031" y="160" width="80" height="80" as="geometry" />
        </mxCell>
        <mxCell id="8jDcVQB9mLgturJCLghL-272" value="" style="group;labelBackgroundColor=default;" vertex="1" connectable="0" parent="1">
          <mxGeometry x="220" y="1750" width="1241" height="360" as="geometry" />
        </mxCell>
        <mxCell id="8jDcVQB9mLgturJCLghL-273" value="" style="rounded=1;whiteSpace=wrap;html=1;fontSize=28;fillColor=#d5e8d4;strokeWidth=2;fontStyle=1;strokeColor=#82b366;" vertex="1" parent="8jDcVQB9mLgturJCLghL-272">
          <mxGeometry y="71.02999999999997" width="1241" height="288.97" as="geometry" />
        </mxCell>
        <mxCell id="8jDcVQB9mLgturJCLghL-274" value="" style="sketch=0;html=1;dashed=0;whitespace=wrap;fillColor=#2875E2;strokeColor=#ffffff;points=[[0.005,0.63,0],[0.1,0.2,0],[0.9,0.2,0],[0.5,0,0],[0.995,0.63,0],[0.72,0.99,0],[0.5,1,0],[0.28,0.99,0]];shape=mxgraph.kubernetes.icon;prIcon=hpa;fontSize=28;fontColor=#000000;fontStyle=1" vertex="1" parent="8jDcVQB9mLgturJCLghL-272">
          <mxGeometry x="545.86" width="118.29" height="121.04" as="geometry" />
        </mxCell>
        <mxCell id="8jDcVQB9mLgturJCLghL-275" value="&lt;span style=&quot;font-size: 28px;&quot;&gt;Auto Scaling Group&lt;/span&gt;" style="text;html=1;align=center;verticalAlign=middle;resizable=0;points=[];autosize=1;strokeColor=none;fillColor=none;fontSize=28;fontColor=#000000;fontStyle=1" vertex="1" parent="8jDcVQB9mLgturJCLghL-272">
          <mxGeometry x="461" y="315" width="280" height="40" as="geometry" />
        </mxCell>
        <mxCell id="8jDcVQB9mLgturJCLghL-276" value="" style="sketch=0;html=1;dashed=0;whitespace=wrap;fillColor=#2875E2;strokeColor=#ffffff;points=[[0.005,0.63,0],[0.1,0.2,0],[0.9,0.2,0],[0.5,0,0],[0.995,0.63,0],[0.72,0.99,0],[0.5,1,0],[0.28,0.99,0]];shape=mxgraph.kubernetes.icon;prIcon=pod;fontSize=28;fontColor=#000000;fontStyle=1" vertex="1" parent="8jDcVQB9mLgturJCLghL-272">
          <mxGeometry x="141" y="160" width="80" height="80" as="geometry" />
        </mxCell>
        <mxCell id="8jDcVQB9mLgturJCLghL-277" value="" style="sketch=0;html=1;dashed=0;whitespace=wrap;fillColor=#2875E2;strokeColor=#ffffff;points=[[0.005,0.63,0],[0.1,0.2,0],[0.9,0.2,0],[0.5,0,0],[0.995,0.63,0],[0.72,0.99,0],[0.5,1,0],[0.28,0.99,0]];shape=mxgraph.kubernetes.icon;prIcon=pod;fontSize=28;fontColor=#000000;fontStyle=1" vertex="1" parent="8jDcVQB9mLgturJCLghL-272">
          <mxGeometry x="286" y="160" width="80" height="80" as="geometry" />
        </mxCell>
        <mxCell id="8jDcVQB9mLgturJCLghL-278" value="" style="sketch=0;html=1;dashed=0;whitespace=wrap;fillColor=#2875E2;strokeColor=#ffffff;points=[[0.005,0.63,0],[0.1,0.2,0],[0.9,0.2,0],[0.5,0,0],[0.995,0.63,0],[0.72,0.99,0],[0.5,1,0],[0.28,0.99,0]];shape=mxgraph.kubernetes.icon;prIcon=pod;fontSize=28;fontColor=#000000;fontStyle=1" vertex="1" parent="8jDcVQB9mLgturJCLghL-272">
          <mxGeometry x="431" y="160" width="80" height="80" as="geometry" />
        </mxCell>
        <mxCell id="8jDcVQB9mLgturJCLghL-279" value="" style="sketch=0;html=1;dashed=0;whitespace=wrap;fillColor=#2875E2;strokeColor=#ffffff;points=[[0.005,0.63,0],[0.1,0.2,0],[0.9,0.2,0],[0.5,0,0],[0.995,0.63,0],[0.72,0.99,0],[0.5,1,0],[0.28,0.99,0]];shape=mxgraph.kubernetes.icon;prIcon=pod;fontSize=28;fontColor=#000000;fontStyle=1" vertex="1" parent="8jDcVQB9mLgturJCLghL-272">
          <mxGeometry x="581" y="160" width="80" height="80" as="geometry" />
        </mxCell>
        <mxCell id="8jDcVQB9mLgturJCLghL-280" value="" style="sketch=0;html=1;dashed=0;whitespace=wrap;fillColor=#2875E2;strokeColor=#ffffff;points=[[0.005,0.63,0],[0.1,0.2,0],[0.9,0.2,0],[0.5,0,0],[0.995,0.63,0],[0.72,0.99,0],[0.5,1,0],[0.28,0.99,0]];shape=mxgraph.kubernetes.icon;prIcon=pod;fontSize=28;fontColor=#000000;fontStyle=1" vertex="1" parent="8jDcVQB9mLgturJCLghL-272">
          <mxGeometry x="731" y="160" width="80" height="80" as="geometry" />
        </mxCell>
        <mxCell id="8jDcVQB9mLgturJCLghL-281" value="" style="sketch=0;html=1;dashed=0;whitespace=wrap;fillColor=#2875E2;strokeColor=#ffffff;points=[[0.005,0.63,0],[0.1,0.2,0],[0.9,0.2,0],[0.5,0,0],[0.995,0.63,0],[0.72,0.99,0],[0.5,1,0],[0.28,0.99,0]];shape=mxgraph.kubernetes.icon;prIcon=pod;fontSize=28;fontColor=#000000;fontStyle=1" vertex="1" parent="8jDcVQB9mLgturJCLghL-272">
          <mxGeometry x="881" y="160" width="80" height="80" as="geometry" />
        </mxCell>
        <mxCell id="8jDcVQB9mLgturJCLghL-282" value="" style="sketch=0;html=1;dashed=0;whitespace=wrap;fillColor=#2875E2;strokeColor=#ffffff;points=[[0.005,0.63,0],[0.1,0.2,0],[0.9,0.2,0],[0.5,0,0],[0.995,0.63,0],[0.72,0.99,0],[0.5,1,0],[0.28,0.99,0]];shape=mxgraph.kubernetes.icon;prIcon=pod;fontSize=28;fontColor=#000000;fontStyle=1" vertex="1" parent="8jDcVQB9mLgturJCLghL-272">
          <mxGeometry x="1031" y="160" width="80" height="80" as="geometry" />
        </mxCell>
        <mxCell id="8jDcVQB9mLgturJCLghL-305" value="" style="endArrow=classic;html=1;rounded=0;fontSize=28;fontColor=#000000;edgeStyle=orthogonalEdgeStyle;curved=1;" edge="1" parent="1">
          <mxGeometry relative="1" as="geometry">
            <mxPoint x="1460" y="1170" as="sourcePoint" />
            <mxPoint x="1814.5714285714287" y="1170" as="targetPoint" />
          </mxGeometry>
        </mxCell>
        <mxCell id="8jDcVQB9mLgturJCLghL-306" value="UI Server" style="edgeLabel;resizable=0;html=1;align=center;verticalAlign=middle;labelBackgroundColor=default;fontSize=28;fontColor=#000000;strokeWidth=2;fillColor=none;" connectable="0" vertex="1" parent="8jDcVQB9mLgturJCLghL-305">
          <mxGeometry relative="1" as="geometry" />
        </mxCell>
        <mxCell id="8jDcVQB9mLgturJCLghL-309" value="c4cacfe55bfd" style="endArrow=classic;html=1;rounded=0;fontSize=28;fontColor=#000000;edgeStyle=orthogonalEdgeStyle;curved=1;" edge="1" parent="1">
          <mxGeometry relative="1" as="geometry">
            <mxPoint x="1460" y="1549.29" as="sourcePoint" />
            <mxPoint x="1814.5714285714284" y="1549.29" as="targetPoint" />
          </mxGeometry>
        </mxCell>
        <mxCell id="8jDcVQB9mLgturJCLghL-310" value="Core Business Logic" style="edgeLabel;resizable=0;html=1;align=center;verticalAlign=middle;labelBackgroundColor=default;fontSize=28;fontColor=#000000;strokeWidth=2;fillColor=none;" connectable="0" vertex="1" parent="8jDcVQB9mLgturJCLghL-309">
          <mxGeometry relative="1" as="geometry" />
        </mxCell>
        <mxCell id="8jDcVQB9mLgturJCLghL-312" value="Data stores" style="endArrow=classic;html=1;rounded=0;fontSize=28;fontColor=#000000;edgeStyle=orthogonalEdgeStyle;curved=1;" edge="1" parent="1">
          <mxGeometry relative="1" as="geometry">
            <mxPoint x="1460" y="1970" as="sourcePoint" />
            <mxPoint x="1814.5714285714284" y="1970" as="targetPoint" />
          </mxGeometry>
        </mxCell>
        <mxCell id="8jDcVQB9mLgturJCLghL-295" value="" style="rounded=1;whiteSpace=wrap;html=1;fontSize=28;fillColor=#d5e8d4;strokeWidth=2;fontStyle=1;strokeColor=#82b366;" vertex="1" parent="1">
          <mxGeometry x="220" y="2241.03" width="540" height="288.97" as="geometry" />
        </mxCell>
        <mxCell id="8jDcVQB9mLgturJCLghL-296" value="" style="sketch=0;html=1;dashed=0;whitespace=wrap;fillColor=#2875E2;strokeColor=#ffffff;points=[[0.005,0.63,0],[0.1,0.2,0],[0.9,0.2,0],[0.5,0,0],[0.995,0.63,0],[0.72,0.99,0],[0.5,1,0],[0.28,0.99,0]];shape=mxgraph.kubernetes.icon;prIcon=hpa;fontSize=28;fontColor=#000000;fontStyle=1" vertex="1" parent="1">
          <mxGeometry x="430.86" y="2170" width="118.29" height="121.04" as="geometry" />
        </mxCell>
        <mxCell id="8jDcVQB9mLgturJCLghL-297" value="&lt;span style=&quot;font-size: 28px;&quot;&gt;Auto Scaling Group&lt;/span&gt;" style="text;html=1;align=center;verticalAlign=middle;resizable=0;points=[];autosize=1;strokeColor=none;fillColor=none;fontSize=28;fontColor=#000000;fontStyle=1" vertex="1" parent="1">
          <mxGeometry x="354.86" y="2490" width="280" height="40" as="geometry" />
        </mxCell>
        <mxCell id="8jDcVQB9mLgturJCLghL-316" value="" style="shape=image;html=1;verticalAlign=top;verticalLabelPosition=bottom;labelBackgroundColor=#ffffff;imageAspect=0;aspect=fixed;image=https://cdn4.iconfinder.com/data/icons/logos-brands-5/24/grafana-128.png;fontSize=28;fontColor=#000000;strokeWidth=2;fillColor=none;" vertex="1" parent="1">
          <mxGeometry x="260" y="2316" width="128" height="128" as="geometry" />
        </mxCell>
        <mxCell id="8jDcVQB9mLgturJCLghL-317" value="" style="shape=image;html=1;verticalAlign=top;verticalLabelPosition=bottom;labelBackgroundColor=#ffffff;imageAspect=0;aspect=fixed;image=https://cdn4.iconfinder.com/data/icons/logos-brands-5/24/grafana-128.png;fontSize=28;fontColor=#000000;strokeWidth=2;fillColor=none;" vertex="1" parent="1">
          <mxGeometry x="430.86" y="2316" width="128" height="128" as="geometry" />
        </mxCell>
        <mxCell id="8jDcVQB9mLgturJCLghL-318" value="" style="shape=image;html=1;verticalAlign=top;verticalLabelPosition=bottom;labelBackgroundColor=#ffffff;imageAspect=0;aspect=fixed;image=https://cdn4.iconfinder.com/data/icons/logos-brands-5/24/grafana-128.png;fontSize=28;fontColor=#000000;strokeWidth=2;fillColor=none;" vertex="1" parent="1">
          <mxGeometry x="600" y="2316" width="128" height="128" as="geometry" />
        </mxCell>
        <mxCell id="8jDcVQB9mLgturJCLghL-323" value="" style="group" vertex="1" connectable="0" parent="1">
          <mxGeometry x="850" y="2240" width="650" height="288.97000000000025" as="geometry" />
        </mxCell>
        <mxCell id="8jDcVQB9mLgturJCLghL-322" value="" style="rounded=1;whiteSpace=wrap;html=1;fontSize=28;fillColor=#d5e8d4;strokeWidth=2;fontStyle=1;strokeColor=#82b366;" vertex="1" parent="8jDcVQB9mLgturJCLghL-323">
          <mxGeometry width="590" height="288.97" as="geometry" />
        </mxCell>
        <mxCell id="8jDcVQB9mLgturJCLghL-319" value="" style="outlineConnect=0;dashed=0;verticalLabelPosition=bottom;verticalAlign=top;align=center;html=1;shape=mxgraph.aws3.elasticsearch_service;fillColor=#d80073;labelBackgroundColor=default;fontSize=28;strokeWidth=2;strokeColor=#A50040;fontColor=#ffffff;" vertex="1" parent="8jDcVQB9mLgturJCLghL-323">
          <mxGeometry x="40" y="84.48999999999978" width="120" height="120" as="geometry" />
        </mxCell>
        <mxCell id="8jDcVQB9mLgturJCLghL-320" value="" style="outlineConnect=0;dashed=0;verticalLabelPosition=bottom;verticalAlign=top;align=center;html=1;shape=mxgraph.aws3.elasticsearch_service;fillColor=#d80073;labelBackgroundColor=default;fontSize=28;strokeWidth=2;strokeColor=#A50040;fontColor=#ffffff;" vertex="1" parent="8jDcVQB9mLgturJCLghL-323">
          <mxGeometry x="235" y="84.48999999999978" width="120" height="120" as="geometry" />
        </mxCell>
        <mxCell id="8jDcVQB9mLgturJCLghL-321" value="" style="outlineConnect=0;dashed=0;verticalLabelPosition=bottom;verticalAlign=top;align=center;html=1;shape=mxgraph.aws3.elasticsearch_service;fillColor=#d80073;labelBackgroundColor=default;fontSize=28;strokeWidth=2;strokeColor=#A50040;fontColor=#ffffff;" vertex="1" parent="8jDcVQB9mLgturJCLghL-323">
          <mxGeometry x="435" y="84.48999999999978" width="120" height="120" as="geometry" />
        </mxCell>
        <mxCell id="8jDcVQB9mLgturJCLghL-325" value="" style="sketch=0;html=1;dashed=0;whitespace=wrap;fillColor=#2875E2;strokeColor=#ffffff;points=[[0.005,0.63,0],[0.1,0.2,0],[0.9,0.2,0],[0.5,0,0],[0.995,0.63,0],[0.72,0.99,0],[0.5,1,0],[0.28,0.99,0]];shape=mxgraph.kubernetes.icon;prIcon=hpa;fontSize=28;fontColor=#000000;fontStyle=1" vertex="1" parent="1">
          <mxGeometry x="1087.21" y="2180" width="118.29" height="121.04" as="geometry" />
        </mxCell>
        <mxCell id="8jDcVQB9mLgturJCLghL-327" value="&lt;b&gt;AWS Shield&lt;/b&gt;" style="outlineConnect=0;dashed=0;verticalLabelPosition=bottom;verticalAlign=top;align=center;html=1;shape=mxgraph.aws3.shield;fillColor=#759C3E;gradientColor=none;labelBackgroundColor=default;fontSize=28;fontColor=#000000;strokeWidth=2;" vertex="1" parent="1">
          <mxGeometry x="1220" y="477" width="76.5" height="70.5" as="geometry" />
        </mxCell>
      </root>
    </mxGraphModel>
  </diagram>
</mxfile>
